<?xml version="1.0" encoding="UTF-8"?>
<svg version="1.1" xmlns="http://www.w3.org/2000/svg" width="1080" height="1080">
<path d="M0 0 C1.92216073 -0.00390778 3.84432063 -0.00824652 5.76647949 -0.01298523 C9.76654882 -0.02037414 13.76652979 -0.02021149 17.76660156 -0.01489258 C21.80382455 -0.01027073 25.84074564 -0.01715443 29.87792969 -0.03540039 C52.57203048 -0.13696843 74.84221451 0.03669867 97.34375 3.30078125 C99.00241203 3.52764003 100.66110154 3.75429802 102.31982422 3.98071289 C106.56952528 4.58043174 110.80105457 5.26471727 115.03125 5.98828125 C115.76946991 6.11261536 116.50768982 6.23694946 117.26828003 6.36505127 C160.48254905 13.69888788 202.12739836 26.99202137 242.34375 44.30078125 C243.16456055 44.64995605 243.98537109 44.99913086 244.83105469 45.35888672 C256.67278959 50.40331807 268.04959225 56.13338651 279.34375 62.30078125 C280.31795898 62.82978027 281.29216797 63.3587793 282.29589844 63.90380859 C307.26598903 77.50492341 330.79539138 92.98579499 353.34375 110.30078125 C353.88032227 110.71118652 354.41689453 111.1215918 354.96972656 111.54443359 C368.09255785 121.60779211 380.53557445 132.43731206 392.63330078 143.70800781 C393.88761901 144.87603124 395.14411745 146.04171453 396.40185547 147.20605469 C398.65762084 149.29555352 400.9075449 151.39118788 403.15625 153.48828125 C403.86185059 154.14159424 404.56745117 154.79490723 405.29443359 155.46801758 C409.39416941 159.30891947 413.17774072 163.29077164 416.83178711 167.55737305 C418.53274251 169.51870399 420.33596946 171.32673172 422.21875 173.11328125 C426.16569851 176.99939048 429.59933955 181.20244082 433.0625 185.51953125 C435.22498151 188.1559813 437.47023417 190.66946831 439.78125 193.17578125 C464.21003586 220.09385617 483.99263442 252.5413972 501.34375 284.30078125 C501.82440918 285.17557129 502.30506836 286.05036133 502.80029297 286.95166016 C534.03137719 344.07748524 552.73350927 407.94386349 561.08660889 472.33856201 C561.33083653 474.20223978 561.58720082 476.06431526 561.84423828 477.92626953 C567.29151838 518.70482243 566.96545257 563.57771627 561.34375 604.30078125 C561.1695276 605.63025574 560.99621555 606.95984978 560.82373047 608.28955078 C554.04904316 659.9951265 540.03254391 709.42624758 519.34375 757.30078125 C518.99602539 758.11724121 518.64830078 758.93370117 518.29003906 759.77490234 C513.24427521 771.62137134 507.51350177 783.00230713 501.34375 794.30078125 C500.81475098 795.27499023 500.28575195 796.24919922 499.74072266 797.25292969 C486.13960784 822.22302028 470.65873626 845.75242263 453.34375 868.30078125 C452.93334473 868.83735352 452.52293945 869.37392578 452.10009766 869.92675781 C442.03673914 883.0495891 431.20721919 895.4926057 419.93652344 907.59033203 C418.76850001 908.84465026 417.60281672 910.1011487 416.43847656 911.35888672 C414.34897773 913.61465209 412.25334337 915.86457615 410.15625 918.11328125 C409.50293701 918.81888184 408.84962402 919.52448242 408.17651367 920.25146484 C404.33561178 924.35120066 400.35375961 928.13477197 396.0871582 931.78881836 C394.12582726 933.48977376 392.31779953 935.29300071 390.53125 937.17578125 C386.64514077 941.12272976 382.44209043 944.5563708 378.125 948.01953125 C375.48854995 950.18201276 372.97506294 952.42726542 370.46875 954.73828125 C343.55067508 979.16706711 311.10313405 998.94966567 279.34375 1016.30078125 C278.46895996 1016.78144043 277.59416992 1017.26209961 276.69287109 1017.75732422 C219.56704601 1048.98840844 155.70066776 1067.69054052 91.30596924 1076.04364014 C89.44229147 1076.28786778 87.58021599 1076.54423207 85.71826172 1076.80126953 C44.93970882 1082.24854963 0.06681498 1081.92248382 -40.65625 1076.30078125 C-41.98572449 1076.12655885 -43.31531853 1075.9532468 -44.64501953 1075.78076172 C-96.35059525 1069.00607441 -145.78171633 1054.98957516 -193.65625 1034.30078125 C-194.47270996 1033.95305664 -195.28916992 1033.60533203 -196.13037109 1033.24707031 C-207.97684009 1028.20130646 -219.35777588 1022.47053302 -230.65625 1016.30078125 C-231.63045898 1015.77178223 -232.60466797 1015.2427832 -233.60839844 1014.69775391 C-258.57848903 1001.09663909 -282.10789138 985.61576751 -304.65625 968.30078125 C-305.19282227 967.89037598 -305.72939453 967.4799707 -306.28222656 967.05712891 C-319.40505785 956.99377039 -331.84807445 946.16425044 -343.94580078 934.89355469 C-345.20011901 933.72553126 -346.45661745 932.55984797 -347.71435547 931.39550781 C-349.97012084 929.30600898 -352.2200449 927.21037462 -354.46875 925.11328125 C-355.17435059 924.45996826 -355.87995117 923.80665527 -356.60693359 923.13354492 C-360.70666941 919.29264303 -364.49024072 915.31079086 -368.14428711 911.04418945 C-369.84524251 909.08285851 -371.64846946 907.27483078 -373.53125 905.48828125 C-377.47819851 901.60217202 -380.91183955 897.39912168 -384.375 893.08203125 C-386.53748151 890.4455812 -388.78273417 887.93209419 -391.09375 885.42578125 C-415.52253586 858.50770633 -435.30513442 826.0601653 -452.65625 794.30078125 C-453.13690918 793.42599121 -453.61756836 792.55120117 -454.11279297 791.64990234 C-483.08688397 738.65241935 -501.40315602 679.58166701 -510.46875 619.98828125 C-510.76096436 618.07112305 -510.76096436 618.07112305 -511.05908203 616.11523438 C-513.60954582 598.61478327 -514.97241504 581.32939002 -514.95703125 563.64453125 C-514.96093903 561.72237052 -514.96527777 559.80021062 -514.97001648 557.87805176 C-514.97740539 553.87798243 -514.97724274 549.87800146 -514.97192383 545.87792969 C-514.96730198 541.8407067 -514.97418568 537.80378561 -514.99243164 533.76660156 C-515.09399968 511.07250077 -514.92033258 488.80231674 -511.65625 466.30078125 C-511.42939122 464.64211922 -511.20273323 462.98342971 -510.97631836 461.32470703 C-510.37659951 457.07500597 -509.69231398 452.84347668 -508.96875 448.61328125 C-508.84441589 447.87506134 -508.72008179 447.13684143 -508.59197998 446.37625122 C-501.25814337 403.1619822 -487.96500988 361.51713289 -470.65625 321.30078125 C-470.3070752 320.4799707 -469.95790039 319.65916016 -469.59814453 318.81347656 C-464.55371318 306.97174166 -458.82364474 295.594939 -452.65625 284.30078125 C-452.12725098 283.32657227 -451.59825195 282.35236328 -451.05322266 281.34863281 C-437.45210784 256.37854222 -421.97123626 232.84913987 -404.65625 210.30078125 C-404.24584473 209.76420898 -403.83543945 209.22763672 -403.41259766 208.67480469 C-393.34923914 195.5519734 -382.51971919 183.1089568 -371.24902344 171.01123047 C-370.08100001 169.75691224 -368.91531672 168.5004138 -367.75097656 167.24267578 C-365.66147773 164.98691041 -363.56584337 162.73698635 -361.46875 160.48828125 C-360.81543701 159.78268066 -360.16212402 159.07708008 -359.48901367 158.35009766 C-355.64811178 154.25036184 -351.66625961 150.46679053 -347.3996582 146.81274414 C-345.43832726 145.11178874 -343.63029953 143.30856179 -341.84375 141.42578125 C-337.95764077 137.47883274 -333.75459043 134.0451917 -329.4375 130.58203125 C-326.80104995 128.41954974 -324.28756294 126.17429708 -321.78125 123.86328125 C-294.86317508 99.43449539 -262.41563405 79.65189683 -230.65625 62.30078125 C-229.78145996 61.82012207 -228.90666992 61.33946289 -228.00537109 60.84423828 C-175.0078881 31.87014728 -115.93713576 13.55387523 -56.34375 4.48828125 C-55.06564453 4.29347168 -53.78753906 4.09866211 -52.47070312 3.89794922 C-34.97025202 1.34748543 -17.68485877 -0.01538379 0 0 Z " fill="#000000" transform="translate(514.65625,-0.30078125)"/>
<path d="M0 0 C17.65544437 -0.2940718 35.30878198 -0.5332723 52.9659996 -0.67355824 C61.16556551 -0.74044256 69.36349603 -0.83153067 77.56201172 -0.98071289 C84.71249382 -1.1107622 91.86179127 -1.19426532 99.0134232 -1.22315043 C102.79690787 -1.24002424 106.57700543 -1.27932438 110.35939789 -1.37449074 C135.19815005 -1.97571259 135.19815005 -1.97571259 141.46350098 2.83560181 C144.61527106 5.88977041 146.78150383 9.22999019 149 13 C150.17526978 14.40336574 151.37535342 15.78743585 152.625 17.125 C153.15351562 17.73601562 153.68203125 18.34703125 154.2265625 18.9765625 C156.45138092 21.51501171 158.72503319 24.00641776 161 26.5 C163.84524228 29.61907011 166.6719958 32.74755391 169.4375 35.9375 C172.29186126 39.22535071 175.23165207 42.42870442 178.1875 45.625 C182.20797262 49.97820139 186.10382519 54.4191957 189.9375 58.9375 C194.44930385 64.25293677 199.09374551 69.41827513 203.84472656 74.52050781 C207.05527459 77.96903161 210.19697003 81.46258693 213.27734375 85.02734375 C216.1315673 88.29578568 219.06249603 91.49518795 221.984375 94.703125 C223.77019535 96.73812959 225.41203295 98.80900749 227 101 C225.71104283 103.81351786 224.33731495 105.9325707 222.20703125 108.171875 C221.66272461 108.74969727 221.11841797 109.32751953 220.55761719 109.92285156 C219.98172852 110.52581055 219.40583984 111.12876953 218.8125 111.75 C217.62547304 113.00963593 216.43926755 114.2700465 215.25390625 115.53125 C214.68687988 116.13324219 214.11985352 116.73523438 213.53564453 117.35546875 C211.17933357 119.87885677 208.9171254 122.47797036 206.66015625 125.08984375 C201.50152139 131.02530833 196.17212369 136.81343638 190.875 142.625 C187.46198509 146.37458341 184.09278969 150.15523412 180.76953125 153.984375 C178.74885044 156.28607764 176.68687382 158.54764379 174.625 160.8125 C171.42347567 164.35160002 168.36853937 167.97103106 165.375 171.6875 C162.36417836 175.41195929 159.25312328 178.80774906 155.8125 182.12890625 C152.78694301 185.2522722 150.11841221 188.66333098 147.40625 192.05859375 C146.6121875 193.02925781 145.818125 193.99992188 145 195 C144.57333007 195.66175484 144.14666014 196.32350967 143.70706081 197.00531769 C141.24380703 200.45274709 139.35212632 202.65425933 135.15902901 203.72644043 C131.59526213 203.98559281 128.10981518 203.98941482 124.53735352 203.90820312 C123.17673375 203.90594388 121.81610423 203.9072184 120.45549011 203.91174316 C116.77747226 203.9140308 113.10155815 203.86713197 109.42402768 203.8111515 C105.57510743 203.76100666 101.72613437 203.75643125 97.87693787 203.74694824 C90.59518487 203.72212198 83.31439724 203.65652735 76.0330686 203.57615232 C67.74057687 203.48661038 59.44803808 203.44271666 51.15518296 203.40258884 C34.10289769 203.3190563 17.05155104 203.17842039 0 203 C-0.69110709 184.87197729 -1.14574614 166.7761648 -1.09765625 148.6328125 C-1.09578124 146.47850579 -1.0943625 144.32419865 -1.09336853 142.16989136 C-1.08962829 136.61691011 -1.07987553 131.06395684 -1.06866455 125.51098633 C-1.05642024 118.78558429 -1.05200758 112.06017267 -1.04621124 105.33476257 C-1.0366552 95.22315585 -1.01744049 85.11160997 -1 75 C15.5 75 32 75 49 75 C49 101.4 49 127.8 49 155 C70.78 155 92.56 155 115 155 C115.66 153.68 116.32 152.36 117 151 C118.71284337 148.8474502 120.44596716 146.76061385 122.25 144.6875 C122.77070068 144.08373535 123.29140137 143.4799707 123.82788086 142.85791016 C128.53958758 137.43829891 133.42181782 132.18274879 138.36621094 126.9753418 C140.64482614 124.56879171 142.81809255 122.24867348 144.77734375 119.5703125 C145.38255859 118.79300781 145.38255859 118.79300781 146 118 C146.66 118 147.32 118 148 118 C148.20367187 117.46503906 148.40734375 116.93007813 148.6171875 116.37890625 C150.94294773 112.37781026 154.47948282 109.48323181 157.83203125 106.33398438 C159.27438717 104.94226807 160.6431026 103.47515909 162 102 C162 101.01 162 100.02 162 99 C161.42765625 98.76539063 160.8553125 98.53078125 160.265625 98.2890625 C157.47465293 96.70109563 155.84327784 94.80711778 153.75 92.375 C150.87986861 89.10022714 147.98427017 85.92377853 144.875 82.875 C141.74685904 79.78987866 138.83791106 76.58646842 135.97265625 73.2578125 C132.27317468 69.02355439 128.49238817 64.81610465 124.55018616 60.80566406 C123 59 123 59 121.64207458 56.53027344 C118.92719281 52.32311428 116.47244844 49.58634046 111.56488037 48.42251205 C103.80741415 47.46851411 95.98347097 47.70661174 88.18359375 47.8046875 C85.64053854 47.80089805 83.09748641 47.79270617 80.55445862 47.78030396 C74.56168496 47.76165264 68.57069653 47.7871538 62.5782128 47.834427 C55.7509593 47.88579356 48.92411452 47.88018357 42.09671867 47.87000632 C28.06384467 47.85035336 14.03257072 47.90905829 0 48 C0 32.16 0 16.32 0 0 Z " fill="#FDFDFD" transform="translate(363,436)"/>
<path d="M0 0 C26.73 0 53.46 0 81 0 C81 66.99 81 133.98 81 203 C64.83 203 48.66 203 32 203 C32 188.81 32 174.62 32 160 C12.86 160 -6.28 160 -26 160 C-24.25471767 155.63679417 -22.30783695 152.39473777 -19.5625 148.6875 C-18.6575625 147.44364704 -17.75396718 146.19881673 -16.8515625 144.953125 C-16.38266602 144.30666016 -15.91376953 143.66019531 -15.43066406 142.99414062 C-13.52682286 140.34045889 -11.67019095 137.65647694 -9.82763672 134.95996094 C-8.89867696 133.60845011 -7.95746232 132.26528369 -7.00439453 130.93066406 C-4.35942173 127.19346124 -2.20589539 123.6250013 -0.55664062 119.34375 C0.5625 117.4375 0.5625 117.4375 6 112 C18.87 112.495 18.87 112.495 32 113 C32 91.55 32 70.1 32 48 C29.36 48 26.72 48 24 48 C23.75934814 48.84731689 23.51869629 49.69463379 23.27075195 50.56762695 C21.85829476 54.38275388 19.91637641 57.56162753 17.66796875 60.91796875 C17.02574371 61.89373871 17.02574371 61.89373871 16.37054443 62.88922119 C14.98299351 64.99323429 13.58561344 67.09049399 12.1875 69.1875 C11.22494395 70.64109405 10.2627877 72.09495292 9.30102539 73.54907227 C-2.4308152 91.25829028 -14.50306087 108.71457967 -26.85546875 125.99609375 C-33.52862955 135.35774662 -39.96393362 144.86191793 -46.30566406 154.45141602 C-49.93432584 159.93337233 -53.62644011 165.35861892 -57.41235352 170.7331543 C-59.59643307 173.85158866 -61.7116481 177.01263746 -63.8125 180.1875 C-65.00785563 181.9879911 -66.20220677 183.77110068 -67.47167969 185.52075195 C-68.78574161 187.65242909 -69.58483062 189.47763376 -70.45800781 191.79760742 C-72.47350076 196.46993852 -74.59170183 200.25595822 -79 203 C-88.31638327 205.41283769 -98.42833312 204.48120503 -107.96392822 204.02996826 C-111.5762027 203.87540572 -115.1900471 203.8077869 -118.8046875 203.73242188 C-125.87364838 203.57241923 -132.93619701 203.31709888 -140 203 C-138.3242861 198.53458715 -135.9928639 195.02727205 -133.125 191.25 C-132.12362264 189.90857919 -131.12367369 188.56609113 -130.125 187.22265625 C-129.60808594 186.5280127 -129.09117187 185.83336914 -128.55859375 185.11767578 C-126.02734697 181.67844731 -123.57631616 178.18393208 -121.125 174.6875 C-117.04786854 168.88091608 -112.9205246 163.11482266 -108.75 157.375 C-101.6816222 147.63100346 -94.83240327 137.73764615 -87.97558594 127.84423828 C-84.8936073 123.40713359 -81.7902827 118.98506875 -78.6875 114.5625 C-74.20122136 108.16307485 -69.7458411 101.74406917 -65.32958984 95.29614258 C-61.18968443 89.25808978 -57.00030471 83.25489097 -52.8125 77.25 C-48.11576603 70.51330886 -43.47209445 63.75548245 -38.953125 56.8984375 C-36.53078462 53.30368438 -34.01552179 49.77987828 -31.5 46.25 C-25.78383364 38.21871694 -20.307356 30.03623339 -14.87109375 21.81347656 C-10.00893257 14.46814021 -5.0175356 7.24755143 0 0 Z " fill="#FEFEFE" transform="translate(255,436)"/>
<path d="M0 0 C16.17 0 32.34 0 49 0 C49 51.15 49 102.3 49 155 C92.23 155 135.46 155 180 155 C180 170.84 180 186.68 180 203 C120.93 203 61.86 203 1 203 C0.67 136.01 0.34 69.02 0 0 Z " fill="#FEFEFE" transform="translate(781,436)"/>
<path d="M0 0 C1.39810842 0.02243247 2.79631236 0.03948998 4.19454956 0.05145264 C7.84351361 0.0968891 11.48657922 0.21436495 15.13323975 0.34790039 C18.86666045 0.47152832 22.60105219 0.52564411 26.3359375 0.5859375 C33.64068656 0.71394876 40.94060532 0.91822202 48.2421875 1.171875 C47.9121875 2.161875 47.5821875 3.151875 47.2421875 4.171875 C46.5821875 4.171875 45.9221875 4.171875 45.2421875 4.171875 C45.01917969 4.71328125 44.79617188 5.2546875 44.56640625 5.8125 C42.82135 8.92168577 40.48890301 11.35022765 38.0546875 13.921875 C37.0488568 15.00202496 36.04364709 16.08275351 35.0390625 17.1640625 C34.55373047 17.68452148 34.06839844 18.20498047 33.56835938 18.74121094 C27.09377495 25.72594303 21.01390608 33.08986657 14.82275391 40.32519531 C13.29012455 42.115867 11.75661389 43.90577861 10.22265625 45.6953125 C9.73047607 46.26950928 9.2382959 46.84370605 8.73120117 47.43530273 C7.73553759 48.59650212 6.73960494 49.75747087 5.7434082 50.91821289 C3.23539339 53.84144303 0.73316663 56.76926517 -1.7578125 59.70703125 C-7.71253006 66.71634101 -13.81441196 73.55055207 -20.08203125 80.28125 C-22.77478769 83.19021316 -25.39155438 86.1508839 -27.984375 89.1484375 C-31.0568859 92.65407769 -34.21769901 96.07985871 -37.359375 99.5234375 C-39.31018393 101.67758807 -41.23174862 103.84905969 -43.1328125 106.046875 C-46.78112965 110.24849143 -50.57160274 114.31456475 -54.35498047 118.39404297 C-57.5876137 121.88585381 -60.75002009 125.42504232 -63.859375 129.02734375 C-65.88931453 131.32042359 -67.97041873 133.55909922 -70.05957031 135.7980957 C-75.16272855 141.26791475 -79.99551355 146.85303836 -84.6796875 152.69140625 C-86.6069029 154.99174794 -88.6058038 157.08340986 -90.7578125 159.171875 C-93.72976852 162.05624882 -96.35732924 165.06307442 -98.9453125 168.296875 C-102.53883431 172.77791602 -106.32183233 176.99536902 -110.2578125 181.171875 C-116.38402075 187.68130469 -122.54499875 194.3134993 -127.48687744 201.7865448 C-129.7578125 204.171875 -129.7578125 204.171875 -132.6305542 204.77314758 C-134.29601288 204.756493 -134.29601288 204.756493 -135.99511719 204.73950195 C-137.88662506 204.73893547 -137.88662506 204.73893547 -139.81634521 204.73835754 C-141.18746939 204.71282624 -142.55858345 204.68674629 -143.9296875 204.66015625 C-145.33643334 204.65082649 -146.74319546 204.64371114 -148.14996338 204.63871765 C-151.84606061 204.6196599 -155.54116968 204.57057201 -159.23687744 204.51519775 C-163.0106469 204.46397746 -166.78457661 204.44119782 -170.55859375 204.41601562 C-177.95878301 204.36245006 -185.35815911 204.27715462 -192.7578125 204.171875 C-190.32394966 199.95726694 -187.48496638 196.55039266 -184.1328125 193.046875 C-180.2585246 188.93410628 -176.54193362 184.77394789 -173.0078125 180.359375 C-170.39830688 177.10687968 -167.74992339 174.07563616 -164.7578125 171.171875 C-161.78585648 168.28750118 -159.15829576 165.28067558 -156.5703125 162.046875 C-151.89929441 156.22631693 -146.85349645 150.81976636 -141.75390625 145.37890625 C-137.41045051 140.74401519 -133.26508714 135.95493039 -129.1640625 131.10546875 C-123.15702934 124.02185567 -116.9959778 117.1314979 -110.62988281 110.36816406 C-107.13716028 106.65678031 -103.71093301 102.90749479 -100.3828125 99.046875 C-95.24350483 93.11690462 -89.91856831 87.34596673 -84.6328125 81.546875 C-79.59955915 76.01260869 -74.67501829 70.3947049 -69.7890625 64.73046875 C-63.92476213 57.93825622 -58.01832123 51.20357777 -51.95703125 44.5859375 C-49.43866195 41.82154633 -46.97830965 39.01156375 -44.52734375 36.1875 C-42.50666294 33.88579736 -40.44468632 31.62423121 -38.3828125 29.359375 C-35.26885521 25.90820406 -32.25873906 22.39865006 -29.3203125 18.796875 C-28.61180145 17.9422467 -27.90329041 17.08761841 -27.17330933 16.20709229 C-24.72717085 13.21486952 -24.72717085 13.21486952 -22.64358521 10.03875732 C-16.25109094 1.09719513 -10.93810927 -0.52122882 0 0 Z " fill="#FDFDFD" transform="translate(731.7578125,434.828125)"/>
<path d="M0 0 C7.87555035 -0.30309692 15.74970207 -0.53311211 23.62964249 -0.67355824 C27.29036625 -0.74102382 30.94706348 -0.83224901 34.60546875 -0.98071289 C60.22389639 -1.99374328 60.22389639 -1.99374328 66.53466797 2.80664062 C69.67330576 5.86303055 71.81287798 9.22169655 74 13 C75.17391702 14.40449751 76.3737126 15.7889707 77.625 17.125 C78.41777344 18.04152344 78.41777344 18.04152344 79.2265625 18.9765625 C81.45138092 21.51501171 83.72503319 24.00641776 86 26.5 C89.4254791 30.25564576 92.81171378 34.03574392 96.125 37.890625 C97.60870782 39.5597963 99.14013639 41.18653729 100.6875 42.796875 C101.15220703 43.28542969 101.61691406 43.77398437 102.09570312 44.27734375 C103.44072327 45.68783776 104.79821979 47.08640272 106.15625 48.484375 C108 51 108 51 107.96875 53.13671875 C106.87577259 55.23893741 105.75638212 56.47281155 104 58.0625 C100.07130959 61.81480023 96.74249116 65.92137659 93.34375 70.15234375 C90.34313713 73.79808838 87.16594365 77.25943674 83.9453125 80.7109375 C81.98397759 83.01885368 80.48120944 85.36363351 79 88 C74.95579888 86.4277813 72.4940501 83.54838437 69.6875 80.375 C69.19822021 79.83085449 68.70894043 79.28670898 68.20483398 78.72607422 C66.7967346 77.15635154 65.3970987 75.57951234 64 74 C63.38898437 73.31421875 62.77796875 72.6284375 62.1484375 71.921875 C57.98685161 67.20677769 53.91949555 62.40868973 49.82885742 57.63208008 C41.39164458 47.78322903 32.93923966 37.9627011 24.18359375 28.39453125 C21.06686211 24.97671999 18.02989635 21.49471 15 18 C13.91682463 16.75897669 12.83347409 15.51810627 11.75 14.27734375 C10.56237659 12.91417 9.37487785 11.55088764 8.1875 10.1875 C7.32354614 9.1989502 7.32354614 9.1989502 6.44213867 8.19042969 C5.8979126 7.56426758 5.35368652 6.93810547 4.79296875 6.29296875 C4.3033667 5.7311792 3.81376465 5.16938965 3.30932617 4.59057617 C2 3 2 3 0 0 Z " fill="#FDFDFD" transform="translate(538,436)"/>
<path d="M0 0 C2 0 2 0 3.375 1.36328125 C3.91125 2.00652344 4.4475 2.64976562 5 3.3125 C7.88858397 6.71647448 10.84793678 10.03082398 13.875 13.3125 C17.14529473 16.89261212 20.28026617 20.52916237 23.3125 24.3125 C27.94421018 30.0548334 32.94823463 35.400643 37.9921875 40.77734375 C40.84546778 43.82137013 43.61188009 46.92966877 46.3359375 50.08984375 C48.31540126 52.36204511 50.3458317 54.58459872 52.375 56.8125 C55.53869075 60.30864639 58.55092333 63.88386081 61.5 67.5625 C65.08331876 72.00707256 68.90211022 76.01525085 73.0546875 79.9296875 C75.12205821 82.12990131 76.48694939 84.3978531 78 87 C69.99380205 87.32637579 61.99043918 87.57408096 53.97920609 87.72537041 C50.25765185 87.79804092 46.54068805 87.89629874 42.82177734 88.05615234 C16.75538907 89.14803372 16.75538907 89.14803372 10.44067383 83.95751953 C7.29119642 80.64113027 5.18487823 76.99821552 3 73 C1.04865219 70.76665553 1.04865219 70.76665553 -0.8125 69.125 C-4.44251547 65.60761031 -7.70641215 61.83156046 -11 58 C-12.03982209 56.80031084 -13.08023964 55.60113764 -14.12109375 54.40234375 C-19.43242182 48.28379074 -24.73166145 42.15563767 -30 36 C-28.71104283 33.18648214 -27.33731495 31.0674293 -25.20703125 28.828125 C-24.66264404 28.25030273 -24.11825684 27.67248047 -23.55737305 27.07714844 C-22.98156494 26.47418945 -22.40575684 25.87123047 -21.8125 25.25 C-20.62685772 23.99028547 -19.44195521 22.72987424 -18.2578125 21.46875 C-17.40751465 20.56576172 -17.40751465 20.56576172 -16.54003906 19.64453125 C-11.24596268 13.99124994 -6.41011718 8.05170493 -1.69921875 1.90625 C-0.85810547 0.96265625 -0.85810547 0.96265625 0 0 Z " fill="#FDFDFD" transform="translate(703,552)"/>
</svg>
